<mxfile host="app.diagrams.net" modified="2023-06-21T12:39:31.974Z" agent="Mozilla/5.0 (Windows NT 10.0; Win64; x64) AppleWebKit/537.36 (KHTML, like Gecko) Chrome/114.0.0.0 Safari/537.36" etag="T1IaQ4GScDTTeS04lcCZ" version="21.5.0" type="github">
  <diagram name="Page-1" id="929967ad-93f9-6ef4-fab6-5d389245f69c">
    <mxGraphModel dx="2593" dy="1324" grid="1" gridSize="10" guides="1" tooltips="1" connect="1" arrows="1" fold="1" page="1" pageScale="1.5" pageWidth="827" pageHeight="1169" background="none" math="0" shadow="0">
      <root>
        <mxCell id="0" style=";html=1;" />
        <mxCell id="1" style=";html=1;" parent="0" />
        <mxCell id="RZlHpujkm4N8venH7ORw-78" style="edgeStyle=orthogonalEdgeStyle;rounded=0;orthogonalLoop=1;jettySize=auto;html=1;exitX=1;exitY=0.5;exitDx=0;exitDy=0;entryX=0;entryY=0.5;entryDx=0;entryDy=0;curved=1;" edge="1" parent="1" source="RZlHpujkm4N8venH7ORw-34" target="RZlHpujkm4N8venH7ORw-35">
          <mxGeometry relative="1" as="geometry" />
        </mxCell>
        <mxCell id="RZlHpujkm4N8venH7ORw-79" style="edgeStyle=orthogonalEdgeStyle;rounded=0;orthogonalLoop=1;jettySize=auto;html=1;exitX=0;exitY=0.5;exitDx=0;exitDy=0;entryX=1;entryY=0.5;entryDx=0;entryDy=0;curved=1;" edge="1" parent="1" source="RZlHpujkm4N8venH7ORw-34" target="RZlHpujkm4N8venH7ORw-40">
          <mxGeometry relative="1" as="geometry" />
        </mxCell>
        <mxCell id="RZlHpujkm4N8venH7ORw-80" style="edgeStyle=orthogonalEdgeStyle;rounded=0;orthogonalLoop=1;jettySize=auto;html=1;exitX=1;exitY=0.5;exitDx=0;exitDy=0;entryX=0;entryY=0.5;entryDx=0;entryDy=0;curved=1;" edge="1" parent="1" source="RZlHpujkm4N8venH7ORw-34" target="RZlHpujkm4N8venH7ORw-36">
          <mxGeometry relative="1" as="geometry" />
        </mxCell>
        <mxCell id="RZlHpujkm4N8venH7ORw-81" style="edgeStyle=orthogonalEdgeStyle;rounded=0;orthogonalLoop=1;jettySize=auto;html=1;exitX=0;exitY=0.5;exitDx=0;exitDy=0;entryX=1;entryY=0.5;entryDx=0;entryDy=0;" edge="1" parent="1" source="RZlHpujkm4N8venH7ORw-34" target="RZlHpujkm4N8venH7ORw-39">
          <mxGeometry relative="1" as="geometry" />
        </mxCell>
        <mxCell id="RZlHpujkm4N8venH7ORw-82" style="edgeStyle=orthogonalEdgeStyle;rounded=0;orthogonalLoop=1;jettySize=auto;html=1;exitX=1;exitY=0.5;exitDx=0;exitDy=0;entryX=0;entryY=0.5;entryDx=0;entryDy=0;curved=1;" edge="1" parent="1" source="RZlHpujkm4N8venH7ORw-34" target="RZlHpujkm4N8venH7ORw-37">
          <mxGeometry relative="1" as="geometry" />
        </mxCell>
        <mxCell id="RZlHpujkm4N8venH7ORw-83" style="edgeStyle=orthogonalEdgeStyle;rounded=0;orthogonalLoop=1;jettySize=auto;html=1;exitX=0;exitY=0.5;exitDx=0;exitDy=0;entryX=1;entryY=0.5;entryDx=0;entryDy=0;curved=1;" edge="1" parent="1" source="RZlHpujkm4N8venH7ORw-34" target="RZlHpujkm4N8venH7ORw-38">
          <mxGeometry relative="1" as="geometry" />
        </mxCell>
        <mxCell id="RZlHpujkm4N8venH7ORw-34" value="System im Verteilerschrank" style="rounded=0;whiteSpace=wrap;html=1;fontStyle=1;fontSize=14;shadow=1;" vertex="1" parent="1">
          <mxGeometry x="400" y="500" width="120" height="40" as="geometry" />
        </mxCell>
        <mxCell id="RZlHpujkm4N8venH7ORw-35" value="Platzersparnis" style="whiteSpace=wrap;html=1;fontSize=14;rounded=0;fontStyle=1;fillColor=#d5e8d4;strokeColor=#82b366;shadow=1;" vertex="1" parent="1">
          <mxGeometry x="600" y="560.02" width="120" height="40" as="geometry" />
        </mxCell>
        <mxCell id="RZlHpujkm4N8venH7ORw-36" value="Einfache Verkabelung" style="whiteSpace=wrap;html=1;fontSize=14;rounded=0;fontStyle=1;fillColor=#d5e8d4;strokeColor=#82b366;shadow=1;" vertex="1" parent="1">
          <mxGeometry x="600" y="500" width="120" height="40" as="geometry" />
        </mxCell>
        <mxCell id="RZlHpujkm4N8venH7ORw-37" value="Zugänglichkeit und Sicherheit" style="whiteSpace=wrap;html=1;fontSize=14;rounded=0;fontStyle=1;fillColor=#d5e8d4;strokeColor=#82b366;shadow=1;" vertex="1" parent="1">
          <mxGeometry x="600" y="439.97" width="120" height="40.03" as="geometry" />
        </mxCell>
        <mxCell id="RZlHpujkm4N8venH7ORw-38" value="Elektromagnetische Interferenzen" style="whiteSpace=wrap;html=1;fontSize=12;rounded=0;fontStyle=1;fillColor=#f8cecc;strokeColor=#b85450;shadow=1;" vertex="1" parent="1">
          <mxGeometry x="200" y="440" width="120" height="40" as="geometry" />
        </mxCell>
        <mxCell id="RZlHpujkm4N8venH7ORw-39" value="Wärme-entwicklung" style="whiteSpace=wrap;html=1;fontSize=14;rounded=0;fontStyle=1;fillColor=#f8cecc;strokeColor=#b85450;shadow=1;" vertex="1" parent="1">
          <mxGeometry x="200" y="500" width="120" height="40" as="geometry" />
        </mxCell>
        <mxCell id="RZlHpujkm4N8venH7ORw-40" value="Begrenzter Raum" style="whiteSpace=wrap;html=1;fontSize=14;rounded=0;fontStyle=1;fillColor=#f8cecc;strokeColor=#b85450;shadow=1;" vertex="1" parent="1">
          <mxGeometry x="200" y="560.02" width="120" height="40" as="geometry" />
        </mxCell>
        <mxCell id="RZlHpujkm4N8venH7ORw-43" value="" style="endArrow=none;html=1;rounded=0;strokeWidth=2;" edge="1" parent="1">
          <mxGeometry width="50" height="50" relative="1" as="geometry">
            <mxPoint x="120" y="640" as="sourcePoint" />
            <mxPoint x="740" y="640" as="targetPoint" />
          </mxGeometry>
        </mxCell>
        <mxCell id="RZlHpujkm4N8venH7ORw-44" value="2" style="rounded=0;whiteSpace=wrap;html=1;strokeColor=none;fontSize=18;fontStyle=1;fillColor=none;" vertex="1" parent="1">
          <mxGeometry x="120" y="500" width="40" height="40" as="geometry" />
        </mxCell>
        <mxCell id="RZlHpujkm4N8venH7ORw-45" value="+" style="rounded=0;whiteSpace=wrap;html=1;fillColor=none;strokeColor=none;" vertex="1" parent="1">
          <mxGeometry x="600" y="549.99" width="10" height="10" as="geometry" />
        </mxCell>
        <mxCell id="RZlHpujkm4N8venH7ORw-46" value="+" style="rounded=0;whiteSpace=wrap;html=1;fillColor=none;strokeColor=none;" vertex="1" parent="1">
          <mxGeometry x="600" y="489.97" width="10" height="10" as="geometry" />
        </mxCell>
        <mxCell id="RZlHpujkm4N8venH7ORw-47" value="+" style="rounded=0;whiteSpace=wrap;html=1;fillColor=none;strokeColor=none;" vertex="1" parent="1">
          <mxGeometry x="600" y="430" width="10" height="10" as="geometry" />
        </mxCell>
        <mxCell id="RZlHpujkm4N8venH7ORw-48" value="-" style="rounded=0;whiteSpace=wrap;html=1;fillColor=none;strokeColor=none;fontSize=14;" vertex="1" parent="1">
          <mxGeometry x="200" y="570" width="10" height="10" as="geometry" />
        </mxCell>
        <mxCell id="RZlHpujkm4N8venH7ORw-49" value="-" style="rounded=0;whiteSpace=wrap;html=1;fillColor=none;strokeColor=none;fontSize=14;" vertex="1" parent="1">
          <mxGeometry x="200" y="490" width="10" height="10" as="geometry" />
        </mxCell>
        <mxCell id="RZlHpujkm4N8venH7ORw-50" value="-" style="rounded=0;whiteSpace=wrap;html=1;fillColor=none;strokeColor=none;fontSize=14;" vertex="1" parent="1">
          <mxGeometry x="200" y="430" width="10" height="10" as="geometry" />
        </mxCell>
        <mxCell id="RZlHpujkm4N8venH7ORw-72" style="edgeStyle=orthogonalEdgeStyle;rounded=0;orthogonalLoop=1;jettySize=auto;html=1;exitX=0;exitY=0.5;exitDx=0;exitDy=0;entryX=1;entryY=0.5;entryDx=0;entryDy=0;curved=1;" edge="1" parent="1" source="RZlHpujkm4N8venH7ORw-55" target="RZlHpujkm4N8venH7ORw-60">
          <mxGeometry relative="1" as="geometry" />
        </mxCell>
        <mxCell id="RZlHpujkm4N8venH7ORw-73" style="edgeStyle=orthogonalEdgeStyle;rounded=0;orthogonalLoop=1;jettySize=auto;html=1;exitX=0;exitY=0.5;exitDx=0;exitDy=0;entryX=1;entryY=0.5;entryDx=0;entryDy=0;curved=1;" edge="1" parent="1" source="RZlHpujkm4N8venH7ORw-55" target="RZlHpujkm4N8venH7ORw-59">
          <mxGeometry relative="1" as="geometry" />
        </mxCell>
        <mxCell id="RZlHpujkm4N8venH7ORw-74" style="edgeStyle=orthogonalEdgeStyle;rounded=0;orthogonalLoop=1;jettySize=auto;html=1;exitX=0;exitY=0.5;exitDx=0;exitDy=0;entryX=1;entryY=0.5;entryDx=0;entryDy=0;curved=1;" edge="1" parent="1" source="RZlHpujkm4N8venH7ORw-55" target="RZlHpujkm4N8venH7ORw-61">
          <mxGeometry relative="1" as="geometry" />
        </mxCell>
        <mxCell id="RZlHpujkm4N8venH7ORw-75" style="edgeStyle=orthogonalEdgeStyle;rounded=0;orthogonalLoop=1;jettySize=auto;html=1;exitX=1;exitY=0.5;exitDx=0;exitDy=0;entryX=0;entryY=0.5;entryDx=0;entryDy=0;curved=1;" edge="1" parent="1" source="RZlHpujkm4N8venH7ORw-55" target="RZlHpujkm4N8venH7ORw-57">
          <mxGeometry relative="1" as="geometry" />
        </mxCell>
        <mxCell id="RZlHpujkm4N8venH7ORw-76" style="edgeStyle=orthogonalEdgeStyle;rounded=0;orthogonalLoop=1;jettySize=auto;html=1;exitX=1;exitY=0.5;exitDx=0;exitDy=0;entryX=0;entryY=0.5;entryDx=0;entryDy=0;curved=1;" edge="1" parent="1" source="RZlHpujkm4N8venH7ORw-55" target="RZlHpujkm4N8venH7ORw-58">
          <mxGeometry relative="1" as="geometry" />
        </mxCell>
        <mxCell id="RZlHpujkm4N8venH7ORw-77" style="edgeStyle=orthogonalEdgeStyle;rounded=0;orthogonalLoop=1;jettySize=auto;html=1;exitX=1;exitY=0.5;exitDx=0;exitDy=0;entryX=0;entryY=0.5;entryDx=0;entryDy=0;curved=1;" edge="1" parent="1" source="RZlHpujkm4N8venH7ORw-55" target="RZlHpujkm4N8venH7ORw-56">
          <mxGeometry relative="1" as="geometry" />
        </mxCell>
        <mxCell id="RZlHpujkm4N8venH7ORw-55" value="Modulares System" style="rounded=0;whiteSpace=wrap;html=1;fontStyle=1;fontSize=14;shadow=1;" vertex="1" parent="1">
          <mxGeometry x="400" y="260.03" width="120" height="40" as="geometry" />
        </mxCell>
        <mxCell id="RZlHpujkm4N8venH7ORw-56" value="Hohe Mobilität" style="whiteSpace=wrap;html=1;fontSize=14;rounded=0;fontStyle=1;fillColor=#d5e8d4;strokeColor=#82b366;shadow=1;" vertex="1" parent="1">
          <mxGeometry x="600" y="325.04999999999995" width="120" height="40" as="geometry" />
        </mxCell>
        <mxCell id="RZlHpujkm4N8venH7ORw-57" value="Einfache Installation" style="whiteSpace=wrap;html=1;fontSize=14;rounded=0;fontStyle=1;fillColor=#d5e8d4;strokeColor=#82b366;shadow=1;" vertex="1" parent="1">
          <mxGeometry x="600" y="200.02999999999997" width="120" height="40" as="geometry" />
        </mxCell>
        <mxCell id="RZlHpujkm4N8venH7ORw-58" value="Erweiterbarkeit" style="whiteSpace=wrap;html=1;fontSize=14;rounded=0;fontStyle=1;fillColor=#d5e8d4;strokeColor=#82b366;shadow=1;" vertex="1" parent="1">
          <mxGeometry x="600" y="260" width="120" height="40.03" as="geometry" />
        </mxCell>
        <mxCell id="RZlHpujkm4N8venH7ORw-59" value="Interferenzen und Signalstörungen" style="whiteSpace=wrap;html=1;fontSize=14;rounded=0;fontStyle=1;fillColor=#f8cecc;strokeColor=#b85450;shadow=1;" vertex="1" parent="1">
          <mxGeometry x="200" y="260.03" width="120" height="40" as="geometry" />
        </mxCell>
        <mxCell id="RZlHpujkm4N8venH7ORw-60" value="Begrenzte Reichweite" style="whiteSpace=wrap;html=1;fontSize=14;rounded=0;fontStyle=1;fillColor=#f8cecc;strokeColor=#b85450;shadow=1;" vertex="1" parent="1">
          <mxGeometry x="200" y="200.02999999999997" width="120" height="40" as="geometry" />
        </mxCell>
        <mxCell id="RZlHpujkm4N8venH7ORw-61" value="Sicherheits-risiken" style="whiteSpace=wrap;html=1;fontSize=14;rounded=0;fontStyle=1;fillColor=#f8cecc;strokeColor=#b85450;shadow=1;" vertex="1" parent="1">
          <mxGeometry x="200" y="320.03" width="120" height="40" as="geometry" />
        </mxCell>
        <mxCell id="RZlHpujkm4N8venH7ORw-64" value="" style="endArrow=none;html=1;rounded=0;strokeWidth=2;" edge="1" parent="1">
          <mxGeometry width="50" height="50" relative="1" as="geometry">
            <mxPoint x="120" y="400.03" as="sourcePoint" />
            <mxPoint x="740" y="400.03" as="targetPoint" />
          </mxGeometry>
        </mxCell>
        <mxCell id="RZlHpujkm4N8venH7ORw-65" value="1" style="rounded=0;whiteSpace=wrap;html=1;strokeColor=none;fontSize=18;fontStyle=1;fillColor=none;" vertex="1" parent="1">
          <mxGeometry x="120" y="260.03" width="40" height="40" as="geometry" />
        </mxCell>
        <mxCell id="RZlHpujkm4N8venH7ORw-66" value="+" style="rounded=0;whiteSpace=wrap;html=1;fillColor=none;strokeColor=none;" vertex="1" parent="1">
          <mxGeometry x="600" y="315.02" width="10" height="10" as="geometry" />
        </mxCell>
        <mxCell id="RZlHpujkm4N8venH7ORw-67" value="+" style="rounded=0;whiteSpace=wrap;html=1;fillColor=none;strokeColor=none;" vertex="1" parent="1">
          <mxGeometry x="600" y="190" width="10" height="10" as="geometry" />
        </mxCell>
        <mxCell id="RZlHpujkm4N8venH7ORw-68" value="+" style="rounded=0;whiteSpace=wrap;html=1;fillColor=none;strokeColor=none;" vertex="1" parent="1">
          <mxGeometry x="600" y="250.02999999999997" width="10" height="10" as="geometry" />
        </mxCell>
        <mxCell id="RZlHpujkm4N8venH7ORw-69" value="-" style="rounded=0;whiteSpace=wrap;html=1;fillColor=none;strokeColor=none;fontSize=14;" vertex="1" parent="1">
          <mxGeometry x="200" y="310.03" width="10" height="10" as="geometry" />
        </mxCell>
        <mxCell id="RZlHpujkm4N8venH7ORw-70" value="-" style="rounded=0;whiteSpace=wrap;html=1;fillColor=none;strokeColor=none;fontSize=14;" vertex="1" parent="1">
          <mxGeometry x="200" y="190.02999999999997" width="10" height="10" as="geometry" />
        </mxCell>
        <mxCell id="RZlHpujkm4N8venH7ORw-71" value="-" style="rounded=0;whiteSpace=wrap;html=1;fillColor=none;strokeColor=none;fontSize=14;" vertex="1" parent="1">
          <mxGeometry x="200" y="250.02999999999997" width="10" height="10" as="geometry" />
        </mxCell>
        <mxCell id="RZlHpujkm4N8venH7ORw-85" style="edgeStyle=orthogonalEdgeStyle;rounded=0;orthogonalLoop=1;jettySize=auto;html=1;exitX=0;exitY=0.5;exitDx=0;exitDy=0;entryX=1;entryY=0.5;entryDx=0;entryDy=0;curved=1;" edge="1" parent="1">
          <mxGeometry relative="1" as="geometry">
            <mxPoint x="400" y="519.99" as="sourcePoint" />
            <mxPoint x="320" y="519.99" as="targetPoint" />
          </mxGeometry>
        </mxCell>
        <mxCell id="RZlHpujkm4N8venH7ORw-87" style="edgeStyle=orthogonalEdgeStyle;rounded=0;orthogonalLoop=1;jettySize=auto;html=1;exitX=1;exitY=0.5;exitDx=0;exitDy=0;entryX=0;entryY=0.5;entryDx=0;entryDy=0;curved=1;" edge="1" source="RZlHpujkm4N8venH7ORw-93" target="RZlHpujkm4N8venH7ORw-94" parent="1">
          <mxGeometry relative="1" as="geometry" />
        </mxCell>
        <mxCell id="RZlHpujkm4N8venH7ORw-88" style="edgeStyle=orthogonalEdgeStyle;rounded=0;orthogonalLoop=1;jettySize=auto;html=1;exitX=0;exitY=0.5;exitDx=0;exitDy=0;entryX=1;entryY=0.5;entryDx=0;entryDy=0;curved=1;" edge="1" source="RZlHpujkm4N8venH7ORw-93" target="RZlHpujkm4N8venH7ORw-99" parent="1">
          <mxGeometry relative="1" as="geometry" />
        </mxCell>
        <mxCell id="RZlHpujkm4N8venH7ORw-89" style="edgeStyle=orthogonalEdgeStyle;rounded=0;orthogonalLoop=1;jettySize=auto;html=1;exitX=1;exitY=0.5;exitDx=0;exitDy=0;entryX=0;entryY=0.5;entryDx=0;entryDy=0;curved=1;" edge="1" source="RZlHpujkm4N8venH7ORw-93" target="RZlHpujkm4N8venH7ORw-95" parent="1">
          <mxGeometry relative="1" as="geometry" />
        </mxCell>
        <mxCell id="RZlHpujkm4N8venH7ORw-90" style="edgeStyle=orthogonalEdgeStyle;rounded=0;orthogonalLoop=1;jettySize=auto;html=1;exitX=0;exitY=0.5;exitDx=0;exitDy=0;entryX=1;entryY=0.5;entryDx=0;entryDy=0;" edge="1" source="RZlHpujkm4N8venH7ORw-93" target="RZlHpujkm4N8venH7ORw-98" parent="1">
          <mxGeometry relative="1" as="geometry" />
        </mxCell>
        <mxCell id="RZlHpujkm4N8venH7ORw-91" style="edgeStyle=orthogonalEdgeStyle;rounded=0;orthogonalLoop=1;jettySize=auto;html=1;exitX=1;exitY=0.5;exitDx=0;exitDy=0;entryX=0;entryY=0.5;entryDx=0;entryDy=0;curved=1;" edge="1" source="RZlHpujkm4N8venH7ORw-93" target="RZlHpujkm4N8venH7ORw-96" parent="1">
          <mxGeometry relative="1" as="geometry" />
        </mxCell>
        <mxCell id="RZlHpujkm4N8venH7ORw-92" style="edgeStyle=orthogonalEdgeStyle;rounded=0;orthogonalLoop=1;jettySize=auto;html=1;exitX=0;exitY=0.5;exitDx=0;exitDy=0;entryX=1;entryY=0.5;entryDx=0;entryDy=0;curved=1;" edge="1" source="RZlHpujkm4N8venH7ORw-93" target="RZlHpujkm4N8venH7ORw-97" parent="1">
          <mxGeometry relative="1" as="geometry" />
        </mxCell>
        <mxCell id="RZlHpujkm4N8venH7ORw-93" value="Einfachheit des Systems" style="rounded=0;whiteSpace=wrap;html=1;fontStyle=1;fontSize=14;shadow=1;" vertex="1" parent="1">
          <mxGeometry x="400" y="736" width="120" height="40" as="geometry" />
        </mxCell>
        <mxCell id="RZlHpujkm4N8venH7ORw-94" value="Kostenersparnis" style="whiteSpace=wrap;html=1;fontSize=14;rounded=0;fontStyle=1;fillColor=#d5e8d4;strokeColor=#82b366;shadow=1;" vertex="1" parent="1">
          <mxGeometry x="600" y="796.02" width="120" height="40" as="geometry" />
        </mxCell>
        <mxCell id="RZlHpujkm4N8venH7ORw-95" value="geringere Fehleranfälligkeit" style="whiteSpace=wrap;html=1;fontSize=14;rounded=0;fontStyle=1;fillColor=#d5e8d4;strokeColor=#82b366;shadow=1;" vertex="1" parent="1">
          <mxGeometry x="600" y="736" width="120" height="40" as="geometry" />
        </mxCell>
        <mxCell id="RZlHpujkm4N8venH7ORw-96" value="Benutzer-freundlichkeit" style="whiteSpace=wrap;html=1;fontSize=14;rounded=0;fontStyle=1;fillColor=#d5e8d4;strokeColor=#82b366;shadow=1;" vertex="1" parent="1">
          <mxGeometry x="600" y="675.97" width="120" height="40.03" as="geometry" />
        </mxCell>
        <mxCell id="RZlHpujkm4N8venH7ORw-97" value="Begrenzter Funktionsumfang" style="whiteSpace=wrap;html=1;fontSize=14;rounded=0;fontStyle=1;fillColor=#f8cecc;strokeColor=#b85450;shadow=1;" vertex="1" parent="1">
          <mxGeometry x="200" y="676" width="120" height="40" as="geometry" />
        </mxCell>
        <mxCell id="RZlHpujkm4N8venH7ORw-98" value="geringere Leistung" style="whiteSpace=wrap;html=1;fontSize=14;rounded=0;fontStyle=1;fillColor=#f8cecc;strokeColor=#b85450;shadow=1;" vertex="1" parent="1">
          <mxGeometry x="200" y="736" width="120" height="40" as="geometry" />
        </mxCell>
        <mxCell id="RZlHpujkm4N8venH7ORw-99" value="mangelnde Flexibilität" style="whiteSpace=wrap;html=1;fontSize=14;rounded=0;fontStyle=1;fillColor=#f8cecc;strokeColor=#b85450;shadow=1;" vertex="1" parent="1">
          <mxGeometry x="200" y="796.02" width="120" height="40" as="geometry" />
        </mxCell>
        <mxCell id="RZlHpujkm4N8venH7ORw-100" value="" style="endArrow=none;html=1;rounded=0;strokeWidth=2;" edge="1" parent="1">
          <mxGeometry width="50" height="50" relative="1" as="geometry">
            <mxPoint x="120" y="876" as="sourcePoint" />
            <mxPoint x="740" y="876" as="targetPoint" />
          </mxGeometry>
        </mxCell>
        <mxCell id="RZlHpujkm4N8venH7ORw-101" value="3" style="rounded=0;whiteSpace=wrap;html=1;strokeColor=none;fontSize=18;fontStyle=1;fillColor=none;" vertex="1" parent="1">
          <mxGeometry x="120" y="736" width="40" height="40" as="geometry" />
        </mxCell>
        <mxCell id="RZlHpujkm4N8venH7ORw-102" value="+" style="rounded=0;whiteSpace=wrap;html=1;fillColor=none;strokeColor=none;" vertex="1" parent="1">
          <mxGeometry x="600" y="785.99" width="10" height="10" as="geometry" />
        </mxCell>
        <mxCell id="RZlHpujkm4N8venH7ORw-103" value="+" style="rounded=0;whiteSpace=wrap;html=1;fillColor=none;strokeColor=none;" vertex="1" parent="1">
          <mxGeometry x="600" y="725.97" width="10" height="10" as="geometry" />
        </mxCell>
        <mxCell id="RZlHpujkm4N8venH7ORw-104" value="+" style="rounded=0;whiteSpace=wrap;html=1;fillColor=none;strokeColor=none;" vertex="1" parent="1">
          <mxGeometry x="600" y="666" width="10" height="10" as="geometry" />
        </mxCell>
        <mxCell id="RZlHpujkm4N8venH7ORw-105" value="-" style="rounded=0;whiteSpace=wrap;html=1;fillColor=none;strokeColor=none;fontSize=14;" vertex="1" parent="1">
          <mxGeometry x="200" y="786.02" width="10" height="10" as="geometry" />
        </mxCell>
        <mxCell id="RZlHpujkm4N8venH7ORw-106" value="-" style="rounded=0;whiteSpace=wrap;html=1;fillColor=none;strokeColor=none;fontSize=14;" vertex="1" parent="1">
          <mxGeometry x="200" y="726" width="10" height="10" as="geometry" />
        </mxCell>
        <mxCell id="RZlHpujkm4N8venH7ORw-107" value="-" style="rounded=0;whiteSpace=wrap;html=1;fillColor=none;strokeColor=none;fontSize=14;" vertex="1" parent="1">
          <mxGeometry x="200" y="666" width="10" height="10" as="geometry" />
        </mxCell>
        <mxCell id="RZlHpujkm4N8venH7ORw-108" style="edgeStyle=orthogonalEdgeStyle;rounded=0;orthogonalLoop=1;jettySize=auto;html=1;exitX=0;exitY=0.5;exitDx=0;exitDy=0;entryX=1;entryY=0.5;entryDx=0;entryDy=0;curved=1;" edge="1" parent="1">
          <mxGeometry relative="1" as="geometry">
            <mxPoint x="400" y="755.99" as="sourcePoint" />
            <mxPoint x="320" y="755.99" as="targetPoint" />
          </mxGeometry>
        </mxCell>
        <mxCell id="RZlHpujkm4N8venH7ORw-109" style="edgeStyle=orthogonalEdgeStyle;rounded=0;orthogonalLoop=1;jettySize=auto;html=1;exitX=1;exitY=0.5;exitDx=0;exitDy=0;entryX=0;entryY=0.5;entryDx=0;entryDy=0;curved=1;" edge="1" source="RZlHpujkm4N8venH7ORw-115" target="RZlHpujkm4N8venH7ORw-116" parent="1">
          <mxGeometry relative="1" as="geometry" />
        </mxCell>
        <mxCell id="RZlHpujkm4N8venH7ORw-110" style="edgeStyle=orthogonalEdgeStyle;rounded=0;orthogonalLoop=1;jettySize=auto;html=1;exitX=0;exitY=0.5;exitDx=0;exitDy=0;entryX=1;entryY=0.5;entryDx=0;entryDy=0;curved=1;" edge="1" source="RZlHpujkm4N8venH7ORw-115" target="RZlHpujkm4N8venH7ORw-121" parent="1">
          <mxGeometry relative="1" as="geometry" />
        </mxCell>
        <mxCell id="RZlHpujkm4N8venH7ORw-111" style="edgeStyle=orthogonalEdgeStyle;rounded=0;orthogonalLoop=1;jettySize=auto;html=1;exitX=1;exitY=0.5;exitDx=0;exitDy=0;entryX=0;entryY=0.5;entryDx=0;entryDy=0;curved=1;" edge="1" source="RZlHpujkm4N8venH7ORw-115" target="RZlHpujkm4N8venH7ORw-117" parent="1">
          <mxGeometry relative="1" as="geometry" />
        </mxCell>
        <mxCell id="RZlHpujkm4N8venH7ORw-112" style="edgeStyle=orthogonalEdgeStyle;rounded=0;orthogonalLoop=1;jettySize=auto;html=1;exitX=0;exitY=0.5;exitDx=0;exitDy=0;entryX=1;entryY=0.5;entryDx=0;entryDy=0;" edge="1" source="RZlHpujkm4N8venH7ORw-115" target="RZlHpujkm4N8venH7ORw-120" parent="1">
          <mxGeometry relative="1" as="geometry" />
        </mxCell>
        <mxCell id="RZlHpujkm4N8venH7ORw-113" style="edgeStyle=orthogonalEdgeStyle;rounded=0;orthogonalLoop=1;jettySize=auto;html=1;exitX=1;exitY=0.5;exitDx=0;exitDy=0;entryX=0;entryY=0.5;entryDx=0;entryDy=0;curved=1;" edge="1" source="RZlHpujkm4N8venH7ORw-115" target="RZlHpujkm4N8venH7ORw-118" parent="1">
          <mxGeometry relative="1" as="geometry" />
        </mxCell>
        <mxCell id="RZlHpujkm4N8venH7ORw-114" style="edgeStyle=orthogonalEdgeStyle;rounded=0;orthogonalLoop=1;jettySize=auto;html=1;exitX=0;exitY=0.5;exitDx=0;exitDy=0;entryX=1;entryY=0.5;entryDx=0;entryDy=0;curved=1;" edge="1" source="RZlHpujkm4N8venH7ORw-115" target="RZlHpujkm4N8venH7ORw-119" parent="1">
          <mxGeometry relative="1" as="geometry" />
        </mxCell>
        <mxCell id="RZlHpujkm4N8venH7ORw-115" value="Einfachheit des Systems" style="rounded=0;whiteSpace=wrap;html=1;fontStyle=1;fontSize=14;shadow=1;" vertex="1" parent="1">
          <mxGeometry x="400" y="980" width="120" height="40" as="geometry" />
        </mxCell>
        <mxCell id="RZlHpujkm4N8venH7ORw-116" value="Kostenersparnis" style="whiteSpace=wrap;html=1;fontSize=14;rounded=0;fontStyle=1;fillColor=#d5e8d4;strokeColor=#82b366;shadow=1;" vertex="1" parent="1">
          <mxGeometry x="600" y="1040.02" width="120" height="40" as="geometry" />
        </mxCell>
        <mxCell id="RZlHpujkm4N8venH7ORw-117" value="geringere Fehleranfälligkeit" style="whiteSpace=wrap;html=1;fontSize=14;rounded=0;fontStyle=1;fillColor=#d5e8d4;strokeColor=#82b366;shadow=1;" vertex="1" parent="1">
          <mxGeometry x="600" y="980" width="120" height="40" as="geometry" />
        </mxCell>
        <mxCell id="RZlHpujkm4N8venH7ORw-118" value="Benutzer-freundlichkeit" style="whiteSpace=wrap;html=1;fontSize=14;rounded=0;fontStyle=1;fillColor=#d5e8d4;strokeColor=#82b366;shadow=1;" vertex="1" parent="1">
          <mxGeometry x="600" y="919.97" width="120" height="40.03" as="geometry" />
        </mxCell>
        <mxCell id="RZlHpujkm4N8venH7ORw-119" value="Begrenzter Funktionsumfang" style="whiteSpace=wrap;html=1;fontSize=14;rounded=0;fontStyle=1;fillColor=#f8cecc;strokeColor=#b85450;shadow=1;" vertex="1" parent="1">
          <mxGeometry x="200" y="920" width="120" height="40" as="geometry" />
        </mxCell>
        <mxCell id="RZlHpujkm4N8venH7ORw-120" value="geringere Leistung" style="whiteSpace=wrap;html=1;fontSize=14;rounded=0;fontStyle=1;fillColor=#f8cecc;strokeColor=#b85450;shadow=1;" vertex="1" parent="1">
          <mxGeometry x="200" y="980" width="120" height="40" as="geometry" />
        </mxCell>
        <mxCell id="RZlHpujkm4N8venH7ORw-121" value="mangelnde Flexibilität" style="whiteSpace=wrap;html=1;fontSize=14;rounded=0;fontStyle=1;fillColor=#f8cecc;strokeColor=#b85450;shadow=1;" vertex="1" parent="1">
          <mxGeometry x="200" y="1040.02" width="120" height="40" as="geometry" />
        </mxCell>
        <mxCell id="RZlHpujkm4N8venH7ORw-122" value="" style="endArrow=none;html=1;rounded=0;strokeWidth=2;" edge="1" parent="1">
          <mxGeometry width="50" height="50" relative="1" as="geometry">
            <mxPoint x="120" y="1120" as="sourcePoint" />
            <mxPoint x="740" y="1120" as="targetPoint" />
          </mxGeometry>
        </mxCell>
        <mxCell id="RZlHpujkm4N8venH7ORw-123" value="4" style="rounded=0;whiteSpace=wrap;html=1;strokeColor=none;fontSize=18;fontStyle=1;fillColor=none;" vertex="1" parent="1">
          <mxGeometry x="120" y="980" width="40" height="40" as="geometry" />
        </mxCell>
        <mxCell id="RZlHpujkm4N8venH7ORw-124" value="+" style="rounded=0;whiteSpace=wrap;html=1;fillColor=none;strokeColor=none;" vertex="1" parent="1">
          <mxGeometry x="600" y="1029.99" width="10" height="10" as="geometry" />
        </mxCell>
        <mxCell id="RZlHpujkm4N8venH7ORw-125" value="+" style="rounded=0;whiteSpace=wrap;html=1;fillColor=none;strokeColor=none;" vertex="1" parent="1">
          <mxGeometry x="600" y="969.97" width="10" height="10" as="geometry" />
        </mxCell>
        <mxCell id="RZlHpujkm4N8venH7ORw-126" value="+" style="rounded=0;whiteSpace=wrap;html=1;fillColor=none;strokeColor=none;" vertex="1" parent="1">
          <mxGeometry x="600" y="910" width="10" height="10" as="geometry" />
        </mxCell>
        <mxCell id="RZlHpujkm4N8venH7ORw-127" value="-" style="rounded=0;whiteSpace=wrap;html=1;fillColor=none;strokeColor=none;fontSize=14;" vertex="1" parent="1">
          <mxGeometry x="200" y="1030.02" width="10" height="10" as="geometry" />
        </mxCell>
        <mxCell id="RZlHpujkm4N8venH7ORw-128" value="-" style="rounded=0;whiteSpace=wrap;html=1;fillColor=none;strokeColor=none;fontSize=14;" vertex="1" parent="1">
          <mxGeometry x="200" y="970" width="10" height="10" as="geometry" />
        </mxCell>
        <mxCell id="RZlHpujkm4N8venH7ORw-129" value="-" style="rounded=0;whiteSpace=wrap;html=1;fillColor=none;strokeColor=none;fontSize=14;" vertex="1" parent="1">
          <mxGeometry x="200" y="910" width="10" height="10" as="geometry" />
        </mxCell>
        <mxCell id="RZlHpujkm4N8venH7ORw-130" style="edgeStyle=orthogonalEdgeStyle;rounded=0;orthogonalLoop=1;jettySize=auto;html=1;exitX=0;exitY=0.5;exitDx=0;exitDy=0;entryX=1;entryY=0.5;entryDx=0;entryDy=0;curved=1;" edge="1" parent="1">
          <mxGeometry relative="1" as="geometry">
            <mxPoint x="400" y="999.99" as="sourcePoint" />
            <mxPoint x="320" y="999.99" as="targetPoint" />
          </mxGeometry>
        </mxCell>
      </root>
    </mxGraphModel>
  </diagram>
</mxfile>
